# xmcd
#
# Track frame offsets:
#	150
#	14740
#	25284
#	37578
#	54770
#	69484
#	83531
#	92963
#	110039
#	126146
#	137816
#	164434
#
# Disc length: 3412 seconds
#
# Revision: 0
# Processed by: cddbd v1.5.2PL0 Copyright (c) Steve Scherf et al.
# Submitted via: EZCDAudioConverter 2.1.7.1
#
DISCID=980d520c
DTITLE=A Certain Ratio - Early 2/2
DYEAR=2002
DGENRE=
TTITLE0=All Night Party [Original 7'' Single]
TTITLE1=Faceless (Graveyard and Ballroom)
TTITLE2=Do The Du [John Peel Session, 1979]
TTITLE3=All Night Party [John Peel Session, 1979]
TTITLE4=Flight [John Peel Session, 1979]
TTITLE5=Choir [John Peel Session, 1979]
TTITLE6=Skipscada [John Peel Session, 1981]
TTITLE7=Felch [Original NYC Mix]
TTITLE8=Abracadubra [Sir Horatio 12'']
TTITLE9=Tumba Rhumba [7'' Single B-Side]
TTITLE10=Si Fermir O Grido ['Touch' Cassette]
TTITLE11=Tribeca
EXTD=
EXTT0=
EXTT1=
EXTT2=
EXTT3=
EXTT4=
EXTT5=
EXTT6=
EXTT7=
EXTT8=
EXTT9=
EXTT10=
EXTT11=
PLAYORDER=
